<?xml version="1.0" encoding="UTF-8" standalone="no"?> <svg height="480pt" viewBox="-76 0 480 480" width="480pt" xmlns="http://www.w3.org/2000/svg"><path d="m88 160c-13.253906 0-24 10.746094-24 24s10.746094 24 24 24 24-10.746094 24-24-10.746094-24-24-24zm0 32c-4.417969 0-8-3.582031-8-8s3.582031-8 8-8 8 3.582031 8 8-3.582031 8-8 8zm0 0"/><path d="m159.703125 197.449219-.007813-.066407-.3125-.796874c-2.460937-6.738282-5.109374-13.410157-8.109374-19.90625-15.28125-33.234376-23.21875-69.371094-23.273438-105.953126v-62.726562c0-4.417969-3.582031-8-8-8h-64c-4.417969 0-8 3.582031-8 8v62.726562c-.054688 36.570313-7.992188 72.695313-23.265625 105.921876-16.238281 35.328124-24.6757812 73.742187-24.734375 112.625v182.726562c0 4.417969 3.582031 8 8 8h160c4.417969 0 8-3.582031 8-8v-182.726562c-.078125-31.320313-5.59375-62.390626-16.296875-91.824219zm-95.703125-181.449219h48v40h-48zm-24.734375 167.351562c16.058594-34.9375 24.492187-72.898437 24.734375-111.351562h48c.242188 38.453125 8.675781 76.414062 24.734375 111.351562 2.082031 4.511719 4 9.105469 5.808594 13.738282l-30.542969 22.910156c-14.242188 10.601562-33.757812 10.601562-48 0l-30.542969-22.910156c1.808594-4.632813 3.726563-9.226563 5.808594-13.738282zm120.734375 280.648438h-144v-40h144zm0-56h-144v-56h144zm0-72h-144v-46.726562c.0625-25.90625 4.082031-51.648438 11.921875-76.335938l26.476563 19.863281c19.945312 14.839844 47.257812 14.839844 67.203124 0l26.488282-19.871093c7.832031 24.691406 11.851562 50.4375 11.910156 76.34375zm0 0"/><path d="m328 224v-56c0-4.417969-3.582031-8-8-8h-96c-4.417969 0-8 3.582031-8 8v56c0 60.894531 16.800781 125.199219 48 134.679688v105.320312h-32v16h80v-16h-32v-105.320312c31.199219-9.480469 48-73.785157 48-134.679688zm-96 0v-48h80v48c0 2.710938-.089844 5.34375-.152344 8h-79.695312c-.0625-2.65625-.152344-5.289062-.152344-8zm40 120c-16.609375 0-34.929688-39.710938-39.105469-96h78.210938c-4.175781 56.289062-22.496094 96-39.105469 96zm0 0"/><path d="m304 96c-13.253906 0-24 10.746094-24 24s10.746094 24 24 24 24-10.746094 24-24-10.746094-24-24-24zm0 32c-4.417969 0-8-3.582031-8-8s3.582031-8 8-8 8 3.582031 8 8-3.582031 8-8 8zm0 0"/><path d="m240 56c-13.253906 0-24 10.746094-24 24s10.746094 24 24 24 24-10.746094 24-24-10.746094-24-24-24zm0 32c-4.417969 0-8-3.582031-8-8s3.582031-8 8-8 8 3.582031 8 8-3.582031 8-8 8zm0 0"/><path d="m304 40h16v16h-16zm0 0"/><path d="m224 0h16v16h-16zm0 0"/></svg>