<?xml version="1.0" encoding="UTF-8" standalone="no"?> <svg id="Layer_1" data-name="Layer 1" xmlns="http://www.w3.org/2000/svg" viewBox="0 0 500 500"><path d="M325.275,75.72a14.912,14.912,0,0,0,3.43-9.57V20.51a15.087,15.087,0,0,0-15.07-15.07H186.365A15.087,15.087,0,0,0,171.3,20.51V66.15a14.958,14.958,0,0,0,3.42,9.57,91.525,91.525,0,0,0-36.85,73.38V466.6a27.994,27.994,0,0,0,27.96,27.96h168.35a27.994,27.994,0,0,0,27.96-27.96V149.1A91.507,91.507,0,0,0,325.275,75.72ZM191.5,28.64a3,3,0,0,1,3-3h111.01a3,3,0,0,1,3,3v29.4a3,3,0,0,1-3,3H194.5a3,3,0,0,1-3-3Zm-10.88,68.44a59.25,59.25,0,0,1,40.63-15.84h57.5a59.25,59.25,0,0,1,40.63,15.84,71.187,71.187,0,0,1,22.13,44.29,3.007,3.007,0,0,1-2.99,3.33H161.485a3.007,3.007,0,0,1-2.99-3.33A71.225,71.225,0,0,1,180.615,97.08Zm161.32,369.53a7.767,7.767,0,0,1-7.76,7.76H165.825a7.761,7.761,0,0,1-7.76-7.76V167.9a3,3,0,0,1,3-3h177.87a3,3,0,0,1,3,3Z"/><path d="M250.655,217.85s-.21.12-.27.15c-.16.08-.31.17-.43.23a89.725,89.725,0,0,1-73.26,4.53l.11,229.64a6,6,0,0,0,6,6h134.41a6,6,0,0,0,6-6l.09-237.05a82.773,82.773,0,0,0-33.73-7.1A83.929,83.929,0,0,0,250.655,217.85Z"/></svg>