<?xml version="1.0" encoding="UTF-8" standalone="no"?> <svg xmlns="http://www.w3.org/2000/svg" viewBox="0 0 64 64"><defs><style>.cls-1{fill:#a5eaf2;}.cls-2{fill:#bbf6f9;}.cls-3{fill:#ffbf00;}.cls-4{fill:#ffd05a;}.cls-5{fill:#8db600;}.cls-6{fill:#eef47a;}.cls-10,.cls-6,.cls-7{stroke:#f2f2f2;}.cls-10,.cls-6,.cls-7,.cls-9{stroke-miterlimit:10;stroke-width:2px;}.cls-10,.cls-7,.cls-9{fill:none;}.cls-8{fill:#f2f2f2;}.cls-9{stroke:#ccc;}.cls-10{stroke-linecap:round;}</style></defs><title>shot, tequila, drink, glass, alcohol, </title><g id="Flat"><path class="cls-1" d="M50,12.07,47.66,44l-.51,7v.07a1,1,0,0,1-1,.93H24a1,1,0,0,1-1-.93L22.49,44l-.73-10L20.15,12.07a1,1,0,0,1,1-1.07H49A1,1,0,0,1,50,12.07Z"/><path class="cls-2" d="M46.85,12.07,44.51,44,44,51v.07A1,1,0,0,1,43,52H24a1,1,0,0,1-1-.93L22.49,44l-.73-10L20.15,12.07a1,1,0,0,1,1-1.07h24.7A1,1,0,0,1,46.85,12.07Z"/><path class="cls-3" d="M45.69,16.07,44,39.74A8.91,8.91,0,0,1,35.08,48a7.69,7.69,0,0,1-.83,0h0a8.91,8.91,0,0,1-8-8.22L24.46,16.07Z"/><path class="cls-4" d="M44,16.07,42.27,39.74a8.91,8.91,0,0,1-8,8.22h0a8.91,8.91,0,0,1-8-8.22L24.46,16.07Z"/><path class="cls-5" d="M18,29.68a12,12,0,0,1-13.3,20Z"/><path class="cls-6" d="M15.78,33A8,8,0,1,1,6.91,46.33"/><path class="cls-7" d="M19.66,38l-6.41,1.29a1.94,1.94,0,0,0-1.52,2.29L13,48"/><line class="cls-7" x1="18" y1="44.1" x2="11.34" y2="39.67"/><path class="cls-8" d="M60.68,50.44a21.94,21.94,0,0,1-9,1.54h0a22.57,22.57,0,0,1-7-1.54.42.42,0,0,1-.28-.57L51.63,37l.44-.76a.73.73,0,0,1,1.13,0L61,49.87A.41.41,0,0,1,60.68,50.44Z"/><line class="cls-9" x1="52" y1="46" x2="53" y2="46"/><line class="cls-9" x1="53" y1="48" x2="54" y2="48"/><line class="cls-9" x1="51" y1="48" x2="52" y2="48"/><circle class="cls-8" cx="33.5" cy="29.5" r="1.5"/><circle class="cls-8" cx="36.5" cy="38.5" r="1.5"/><line class="cls-10" x1="39" y1="30.13" x2="39" y2="30.13"/><line class="cls-10" x1="31" y1="37" x2="31" y2="37"/></g><g id="Outline"><path d="M25.19,39.81a9.91,9.91,0,0,0,19.77,0l1.73-23.67a1,1,0,1,0-2-.15l-.22,3H25.68l-.22-3a1,1,0,0,0-1.07-.92,1,1,0,0,0-.92,1.07ZM44.33,21,43,39.67a7.91,7.91,0,0,1-15.78,0L25.82,21Z"/><path d="M4.14,50.49a13,13,0,0,0,17.6-3.06L22,51.15A2,2,0,0,0,24,53H46.15a2,2,0,0,0,1.43-.62,22.3,22.3,0,0,0,5.06.61A23.05,23.05,0,0,0,61,51.37a1.49,1.49,0,0,0,.88-.88,1.34,1.34,0,0,0-.1-1.11l-7.76-13.6A1.63,1.63,0,0,0,52.64,35h0a1.63,1.63,0,0,0-1.43.78L49,39.67l2-27.53A2,2,0,0,0,49,10H21.15a2,2,0,0,0-2,2.15l1.34,18.29a13.14,13.14,0,0,0-1.95-1.59l-.83-.55L3.31,49.93ZM52.63,37.3l7.08,12.42a20.48,20.48,0,0,1-14.17,0ZM49,12,46.68,43.71l-3.23,5.67a1.34,1.34,0,0,0-.1,1.11,1.41,1.41,0,0,0,.32.51H24l-.5-6.78a12.9,12.9,0,0,0,.58-7.12,13,13,0,0,0-1.37-3.74L21.15,12ZM17.93,37.33l-4.42.89L16,34.46A6.91,6.91,0,0,1,17.93,37.33Zm-7.09,4.9.89,4.42A7,7,0,0,1,8.34,46Zm2.85,4-.89-4.41,3.75,2.5A7,7,0,0,1,13.69,46.25Zm4-3.58-3.75-2.5,4.42-.89A6.91,6.91,0,0,1,17.66,42.67Zm-10.43,5a9,9,0,0,0,9.9-14.87l1.12-1.68A10.9,10.9,0,0,1,20.76,34v.08h0A11,11,0,0,1,6.11,49.34Z"/><rect x="52" y="45" width="1" height="2"/><rect x="53" y="47" width="1" height="2"/><rect x="51" y="47" width="1" height="2"/><path d="M33.5,32A2.5,2.5,0,1,0,31,29.5,2.5,2.5,0,0,0,33.5,32Zm0-3a.5.5,0,1,1-.5.5A.5.5,0,0,1,33.5,29Z"/><path d="M34,38.5A2.5,2.5,0,1,0,36.5,36,2.5,2.5,0,0,0,34,38.5Zm2.5-.5a.5.5,0,1,1-.5.5A.5.5,0,0,1,36.5,38Z"/><path d="M39,31.12a1,1,0,0,0,.71-.29,1,1,0,0,0,0-1.41,1,1,0,0,0-1.42,0,1,1,0,0,0,.71,1.7Z"/><path d="M31,38a1,1,0,0,0,.38-.08,1.17,1.17,0,0,0,.33-.21,1,1,0,0,0,0-1.42,1.16,1.16,0,0,0-.33-.21A1,1,0,0,0,30,37a1,1,0,0,0,1,1Z"/></g></svg>